<svg width="194" height="53" viewBox="0 0 194 53" fill="none" xmlns="http://www.w3.org/2000/svg">
<g clip-path="url(#clip0_299_701)">
<mask id="mask0_299_701" style="mask-type:alpha" maskUnits="userSpaceOnUse" x="0" y="0" width="54" height="53">
<path d="M27.1121 52.9289C41.6526 52.9176 53.4309 41.1183 53.4195 26.5745C53.4082 12.0307 41.6116 0.249901 27.0711 0.261239C12.5306 0.272576 0.75234 12.0718 0.76368 26.6156C0.77502 41.1594 12.5716 52.9402 27.1121 52.9289Z" fill="#20282D"/>
</mask>
<g mask="url(#mask0_299_701)">
<path d="M37.1695 50.9244C50.6031 45.3599 56.9813 29.9564 51.4155 16.5198C45.8498 3.08314 30.4477 -3.2985 17.0141 2.26601C3.58043 7.83052 -2.79774 23.234 2.76803 36.6706C8.33379 50.1073 23.7359 56.4889 37.1695 50.9244Z" fill="#82B440"/>
<mask id="mask1_299_701" style="mask-type:luminance" maskUnits="userSpaceOnUse" x="0" y="0" width="54" height="54">
<path d="M16.7745 2.94027C3.26643 8.53557 -3.14707 24.0245 2.44953 37.5356C8.04613 51.0467 23.5335 57.4637 37.0416 51.8684C50.5497 46.273 56.9632 30.7842 51.3666 17.2731C45.77 3.76188 30.2825 -2.65513 16.7745 2.94027Z" fill="white"/>
</mask>
<g mask="url(#mask1_299_701)">
<path fill-rule="evenodd" clip-rule="evenodd" d="M13.0798 30.82L29.716 14.1839L31.5427 16.0047L39.8223 24.2901L54.1691 9.94334L57.8167 13.5967L39.8223 31.5851L38.0015 29.7643L29.716 21.4789L16.7333 34.4675H28.7196V39.6274H7.92594V18.8278H13.0798V30.82Z" fill="#F2F2F2"/>
</g>
</g>
<path d="M68.9815 30V3.81818H75.3097V24.8608H86.2017V30H68.9815ZM98.6438 30.3707C96.5813 30.3707 94.8086 29.9489 93.3256 29.1051C91.8512 28.2528 90.7134 27.0682 89.9123 25.5511C89.1197 24.0256 88.7234 22.2571 88.7234 20.2457C88.7234 18.2259 89.1197 16.4574 89.9123 14.9403C90.7134 13.4148 91.8512 12.2301 93.3256 11.3864C94.8086 10.5341 96.5813 10.108 98.6438 10.108C100.706 10.108 102.475 10.5341 103.949 11.3864C105.432 12.2301 106.57 13.4148 107.363 14.9403C108.164 16.4574 108.564 18.2259 108.564 20.2457C108.564 22.2571 108.164 24.0256 107.363 25.5511C106.57 27.0682 105.432 28.2528 103.949 29.1051C102.475 29.9489 100.706 30.3707 98.6438 30.3707ZM98.6822 25.6534C99.4322 25.6534 100.067 25.4233 100.587 24.9631C101.107 24.5028 101.503 23.8636 101.776 23.0455C102.057 22.2273 102.198 21.2812 102.198 20.2074C102.198 19.1165 102.057 18.1619 101.776 17.3438C101.503 16.5256 101.107 15.8864 100.587 15.4261C100.067 14.9659 99.4322 14.7358 98.6822 14.7358C97.9066 14.7358 97.2504 14.9659 96.7134 15.4261C96.185 15.8864 95.7802 16.5256 95.4989 17.3438C95.2262 18.1619 95.0898 19.1165 95.0898 20.2074C95.0898 21.2812 95.2262 22.2273 95.4989 23.0455C95.7802 23.8636 96.185 24.5028 96.7134 24.9631C97.2504 25.4233 97.9066 25.6534 98.6822 25.6534ZM120.92 37.7727C119.054 37.7727 117.456 37.5128 116.126 36.9929C114.797 36.473 113.752 35.7614 112.994 34.858C112.235 33.9545 111.779 32.9318 111.626 31.7898L117.545 31.4574C117.656 31.858 117.86 32.2074 118.159 32.5057C118.466 32.804 118.862 33.0341 119.348 33.196C119.842 33.358 120.422 33.4389 121.086 33.4389C122.135 33.4389 123 33.1832 123.681 32.6719C124.372 32.169 124.717 31.2869 124.717 30.0256V26.5739H124.5C124.252 27.179 123.877 27.7202 123.375 28.1974C122.872 28.6747 122.245 29.0497 121.495 29.3224C120.754 29.5952 119.902 29.7315 118.939 29.7315C117.507 29.7315 116.194 29.3991 115.001 28.7344C113.816 28.0611 112.866 27.0213 112.15 25.6151C111.443 24.2003 111.089 22.3807 111.089 20.1562C111.089 17.8636 111.456 15.9759 112.189 14.4929C112.922 13.0014 113.88 11.8977 115.065 11.1818C116.258 10.4659 117.541 10.108 118.913 10.108C119.944 10.108 120.826 10.2869 121.559 10.6449C122.301 10.9943 122.91 11.446 123.387 12C123.865 12.554 124.227 13.1293 124.474 13.7259H124.653V10.3636H130.879V30.0767C130.879 31.7386 130.461 33.1406 129.626 34.2827C128.791 35.4247 127.623 36.2898 126.123 36.8778C124.623 37.4744 122.889 37.7727 120.92 37.7727ZM121.112 25.1804C121.87 25.1804 122.518 24.9801 123.055 24.5795C123.592 24.179 124.005 23.6037 124.295 22.8537C124.585 22.1037 124.73 21.2045 124.73 20.1562C124.73 19.0909 124.585 18.1747 124.295 17.4077C124.014 16.6321 123.6 16.0355 123.055 15.6179C122.518 15.2003 121.87 14.9915 121.112 14.9915C120.336 14.9915 119.68 15.2045 119.143 15.6307C118.606 16.0568 118.197 16.6577 117.916 17.4332C117.643 18.2003 117.507 19.108 117.507 20.1562C117.507 21.2045 117.647 22.1037 117.929 22.8537C118.21 23.6037 118.615 24.179 119.143 24.5795C119.68 24.9801 120.336 25.1804 121.112 25.1804ZM144.031 30.3707C141.968 30.3707 140.195 29.9489 138.712 29.1051C137.238 28.2528 136.1 27.0682 135.299 25.5511C134.506 24.0256 134.11 22.2571 134.11 20.2457C134.11 18.2259 134.506 16.4574 135.299 14.9403C136.1 13.4148 137.238 12.2301 138.712 11.3864C140.195 10.5341 141.968 10.108 144.031 10.108C146.093 10.108 147.862 10.5341 149.336 11.3864C150.819 12.2301 151.957 13.4148 152.749 14.9403C153.55 16.4574 153.951 18.2259 153.951 20.2457C153.951 22.2571 153.55 24.0256 152.749 25.5511C151.957 27.0682 150.819 28.2528 149.336 29.1051C147.862 29.9489 146.093 30.3707 144.031 30.3707ZM144.069 25.6534C144.819 25.6534 145.454 25.4233 145.974 24.9631C146.494 24.5028 146.89 23.8636 147.163 23.0455C147.444 22.2273 147.585 21.2812 147.585 20.2074C147.585 19.1165 147.444 18.1619 147.163 17.3438C146.89 16.5256 146.494 15.8864 145.974 15.4261C145.454 14.9659 144.819 14.7358 144.069 14.7358C143.293 14.7358 142.637 14.9659 142.1 15.4261C141.572 15.8864 141.167 16.5256 140.886 17.3438C140.613 18.1619 140.477 19.1165 140.477 20.2074C140.477 21.2812 140.613 22.2273 140.886 23.0455C141.167 23.8636 141.572 24.5028 142.1 24.9631C142.637 25.4233 143.293 25.6534 144.069 25.6534Z" fill="black"/>
<path d="M68.5938 50V39.15H73.2903C74.0033 39.15 74.6233 39.2688 75.1503 39.5065C75.6773 39.7442 76.0854 40.08 76.3748 40.514C76.6641 40.9377 76.8088 41.4388 76.8088 42.0175C76.8088 42.5445 76.6744 43.0095 76.4058 43.4125C76.1371 43.8155 75.7599 44.1358 75.2743 44.3735C75.8839 44.5905 76.3593 44.9212 76.7003 45.3655C77.0516 45.7995 77.2273 46.311 77.2273 46.9C77.2273 47.5303 77.0723 48.078 76.7623 48.543C76.4523 49.008 76.0183 49.3697 75.4603 49.628C74.9023 49.876 74.2461 50 73.4918 50H68.5938ZM70.2213 43.7535H73.1973C73.8069 43.7535 74.2926 43.6088 74.6543 43.3195C75.0159 43.0302 75.1968 42.6375 75.1968 42.1415C75.1968 41.6455 75.0159 41.2528 74.6543 40.9635C74.2926 40.6742 73.8069 40.5295 73.1973 40.5295H70.2213V43.7535ZM70.2213 48.6205H73.3678C74.0498 48.6205 74.5871 48.4603 74.9798 48.14C75.3828 47.8197 75.5843 47.3857 75.5843 46.838C75.5843 46.3007 75.3828 45.8718 74.9798 45.5515C74.5871 45.2208 74.0498 45.0555 73.3678 45.0555H70.2213V48.6205ZM81.7088 50.155C81.0992 50.155 80.5618 50.0258 80.0968 49.7675C79.6318 49.5092 79.2702 49.1475 79.0118 48.6825C78.7535 48.2072 78.6243 47.6647 78.6243 47.055V42.1105H80.1588V46.7915C80.1588 47.4115 80.3345 47.9023 80.6858 48.264C81.0475 48.6257 81.528 48.8065 82.1273 48.8065C82.551 48.8065 82.9282 48.7187 83.2588 48.543C83.5895 48.357 83.8582 48.0987 84.0648 47.768V42.1105H85.6148V50H84.0648V49.194C83.4552 49.8347 82.6698 50.155 81.7088 50.155ZM90.1623 50.155C89.4803 50.155 88.8395 50.0568 88.2402 49.8605C87.6512 49.6538 87.1398 49.3645 86.7058 48.9925L87.5583 47.9695C87.9613 48.2898 88.3746 48.5378 88.7983 48.7135C89.2323 48.8788 89.6714 48.9615 90.1158 48.9615C90.6738 48.9615 91.1284 48.853 91.4798 48.636C91.8311 48.419 92.0068 48.1348 92.0068 47.7835C92.0068 47.4942 91.9034 47.2668 91.6968 47.1015C91.4901 46.9362 91.1698 46.8225 90.7358 46.7605L89.3098 46.559C88.5244 46.4453 87.9354 46.2025 87.5428 45.8305C87.1501 45.4585 86.9538 44.9625 86.9538 44.3425C86.9538 43.8672 87.0829 43.4538 87.3413 43.1025C87.5996 42.7408 87.9613 42.4618 88.4263 42.2655C88.8913 42.0588 89.4338 41.9555 90.0538 41.9555C90.6221 41.9555 91.1698 42.0382 91.6968 42.2035C92.2238 42.3688 92.7301 42.6272 93.2158 42.9785L92.4253 44.0015C91.9913 43.7122 91.5676 43.5003 91.1543 43.366C90.7513 43.2317 90.3431 43.1645 89.9298 43.1645C89.4544 43.1645 89.0721 43.2678 88.7828 43.4745C88.4934 43.6708 88.3488 43.9292 88.3488 44.2495C88.3488 44.5388 88.4469 44.7662 88.6433 44.9315C88.8499 45.0865 89.1858 45.195 89.6508 45.257L91.0768 45.4585C91.8621 45.5722 92.4563 45.815 92.8593 46.187C93.2623 46.5487 93.4638 47.0395 93.4638 47.6595C93.4638 48.1348 93.3191 48.5637 93.0298 48.946C92.7404 49.318 92.3478 49.6125 91.8518 49.8295C91.3558 50.0465 90.7926 50.155 90.1623 50.155ZM94.6548 50V42.1105H96.2048V50H94.6548ZM95.4298 40.8395C95.1715 40.8395 94.9493 40.7465 94.7633 40.5605C94.5773 40.3642 94.4843 40.1368 94.4843 39.8785C94.4843 39.6098 94.5773 39.3877 94.7633 39.212C94.9493 39.026 95.1715 38.933 95.4298 38.933C95.6985 38.933 95.9258 39.026 96.1118 39.212C96.2978 39.3877 96.3908 39.6098 96.3908 39.8785C96.3908 40.1368 96.2978 40.3642 96.1118 40.5605C95.9258 40.7465 95.6985 40.8395 95.4298 40.8395ZM98.0303 50V42.1105H99.5803V42.9165C100.19 42.2758 100.98 41.9555 101.952 41.9555C102.561 41.9555 103.094 42.0847 103.548 42.343C104.013 42.6013 104.375 42.963 104.633 43.428C104.902 43.893 105.036 44.4303 105.036 45.04V50H103.486V45.3035C103.486 44.6835 103.311 44.1978 102.959 43.8465C102.618 43.4848 102.138 43.304 101.518 43.304C101.104 43.304 100.732 43.3918 100.402 43.5675C100.071 43.7432 99.7973 43.9963 99.5803 44.327V50H98.0303ZM110.607 50.1395C109.832 50.1395 109.129 49.9587 108.499 49.597C107.879 49.2353 107.383 48.7445 107.011 48.1245C106.649 47.5045 106.468 46.8122 106.468 46.0475C106.468 45.2932 106.644 44.6112 106.995 44.0015C107.346 43.3815 107.822 42.8907 108.421 42.529C109.02 42.157 109.687 41.971 110.421 41.971C111.154 41.971 111.805 42.157 112.374 42.529C112.942 42.8907 113.391 43.3867 113.722 44.017C114.063 44.637 114.234 45.3397 114.234 46.125V46.559H108.018C108.101 46.993 108.261 47.3805 108.499 47.7215C108.747 48.0625 109.057 48.3312 109.429 48.5275C109.811 48.7238 110.224 48.822 110.669 48.822C111.051 48.822 111.418 48.7652 111.769 48.6515C112.131 48.5275 112.43 48.3518 112.668 48.1245L113.66 49.101C113.195 49.4523 112.715 49.7158 112.219 49.8915C111.733 50.0568 111.196 50.1395 110.607 50.1395ZM108.034 45.3965H112.699C112.637 44.9832 112.492 44.6215 112.265 44.3115C112.048 43.9912 111.774 43.7432 111.444 43.5675C111.123 43.3815 110.772 43.2885 110.39 43.2885C109.997 43.2885 109.635 43.3763 109.305 43.552C108.974 43.7277 108.695 43.9757 108.468 44.296C108.251 44.606 108.106 44.9728 108.034 45.3965ZM118.498 50.155C117.816 50.155 117.175 50.0568 116.576 49.8605C115.987 49.6538 115.476 49.3645 115.042 48.9925L115.894 47.9695C116.297 48.2898 116.71 48.5378 117.134 48.7135C117.568 48.8788 118.007 48.9615 118.452 48.9615C119.01 48.9615 119.464 48.853 119.816 48.636C120.167 48.419 120.343 48.1348 120.343 47.7835C120.343 47.4942 120.239 47.2668 120.033 47.1015C119.826 46.9362 119.506 46.8225 119.072 46.7605L117.646 46.559C116.86 46.4453 116.271 46.2025 115.879 45.8305C115.486 45.4585 115.29 44.9625 115.29 44.3425C115.29 43.8672 115.419 43.4538 115.677 43.1025C115.935 42.7408 116.297 42.4618 116.762 42.2655C117.227 42.0588 117.77 41.9555 118.39 41.9555C118.958 41.9555 119.506 42.0382 120.033 42.2035C120.56 42.3688 121.066 42.6272 121.552 42.9785L120.761 44.0015C120.327 43.7122 119.903 43.5003 119.49 43.366C119.087 43.2317 118.679 43.1645 118.266 43.1645C117.79 43.1645 117.408 43.2678 117.119 43.4745C116.829 43.6708 116.685 43.9292 116.685 44.2495C116.685 44.5388 116.783 44.7662 116.979 44.9315C117.186 45.0865 117.522 45.195 117.987 45.257L119.413 45.4585C120.198 45.5722 120.792 45.815 121.195 46.187C121.598 46.5487 121.8 47.0395 121.8 47.6595C121.8 48.1348 121.655 48.5637 121.366 48.946C121.076 49.318 120.684 49.6125 120.188 49.8295C119.692 50.0465 119.128 50.155 118.498 50.155ZM125.703 50.155C125.021 50.155 124.381 50.0568 123.781 49.8605C123.192 49.6538 122.681 49.3645 122.247 48.9925L123.099 47.9695C123.502 48.2898 123.916 48.5378 124.339 48.7135C124.773 48.8788 125.212 48.9615 125.657 48.9615C126.215 48.9615 126.669 48.853 127.021 48.636C127.372 48.419 127.548 48.1348 127.548 47.7835C127.548 47.4942 127.444 47.2668 127.238 47.1015C127.031 46.9362 126.711 46.8225 126.277 46.7605L124.851 46.559C124.065 46.4453 123.476 46.2025 123.084 45.8305C122.691 45.4585 122.495 44.9625 122.495 44.3425C122.495 43.8672 122.624 43.4538 122.882 43.1025C123.141 42.7408 123.502 42.4618 123.967 42.2655C124.432 42.0588 124.975 41.9555 125.595 41.9555C126.163 41.9555 126.711 42.0382 127.238 42.2035C127.765 42.3688 128.271 42.6272 128.757 42.9785L127.966 44.0015C127.532 43.7122 127.109 43.5003 126.695 43.366C126.292 43.2317 125.884 43.1645 125.471 43.1645C124.995 43.1645 124.613 43.2678 124.324 43.4745C124.034 43.6708 123.89 43.9292 123.89 44.2495C123.89 44.5388 123.988 44.7662 124.184 44.9315C124.391 45.0865 124.727 45.195 125.192 45.257L126.618 45.4585C127.403 45.5722 127.997 45.815 128.4 46.187C128.803 46.5487 129.005 47.0395 129.005 47.6595C129.005 48.1348 128.86 48.5637 128.571 48.946C128.281 49.318 127.889 49.6125 127.393 49.8295C126.897 50.0465 126.334 50.155 125.703 50.155ZM137.295 50.155C136.427 50.155 135.59 49.9845 134.784 49.6435C133.978 49.3025 133.265 48.822 132.645 48.202L133.637 47.055C134.226 47.6337 134.825 48.0625 135.435 48.3415C136.055 48.6205 136.7 48.76 137.372 48.76C137.899 48.76 138.359 48.6877 138.752 48.543C139.155 48.388 139.465 48.171 139.682 47.892C139.899 47.613 140.007 47.2978 140.007 46.9465C140.007 46.4608 139.837 46.0888 139.496 45.8305C139.155 45.5722 138.591 45.3758 137.806 45.2415L135.993 44.947C135.001 44.7713 134.257 44.451 133.761 43.986C133.275 43.521 133.032 42.901 133.032 42.126C133.032 41.506 133.197 40.9635 133.528 40.4985C133.859 40.0232 134.324 39.6563 134.923 39.398C135.533 39.1397 136.235 39.0105 137.031 39.0105C137.816 39.0105 138.586 39.1397 139.341 39.398C140.105 39.646 140.792 40.0077 141.402 40.483L140.503 41.723C139.335 40.8343 138.152 40.39 136.954 40.39C136.478 40.39 136.065 40.4572 135.714 40.5915C135.362 40.7258 135.088 40.917 134.892 41.165C134.696 41.4027 134.598 41.6817 134.598 42.002C134.598 42.4463 134.747 42.7873 135.047 43.025C135.347 43.2523 135.843 43.4177 136.535 43.521L138.287 43.8155C139.434 44.0015 140.276 44.3373 140.813 44.823C141.35 45.3087 141.619 45.9752 141.619 46.8225C141.619 47.4838 141.438 48.0677 141.077 48.574C140.715 49.07 140.209 49.4575 139.558 49.7365C138.907 50.0155 138.152 50.155 137.295 50.155ZM146.843 50.155C146.079 50.155 145.381 49.9742 144.751 49.6125C144.131 49.2508 143.64 48.76 143.278 48.14C142.917 47.52 142.736 46.8277 142.736 46.063C142.736 45.2983 142.917 44.606 143.278 43.986C143.64 43.366 144.131 42.8752 144.751 42.5135C145.381 42.1415 146.079 41.9555 146.843 41.9555C147.618 41.9555 148.316 42.1415 148.936 42.5135C149.556 42.8752 150.047 43.366 150.408 43.986C150.77 44.606 150.951 45.2983 150.951 46.063C150.951 46.8277 150.77 47.52 150.408 48.14C150.047 48.76 149.556 49.2508 148.936 49.6125C148.316 49.9742 147.618 50.155 146.843 50.155ZM146.843 48.791C147.329 48.791 147.768 48.6722 148.161 48.4345C148.553 48.1865 148.863 47.8558 149.091 47.4425C149.318 47.0292 149.432 46.5642 149.432 46.0475C149.432 45.5412 149.313 45.0865 149.075 44.6835C148.848 44.2702 148.538 43.9395 148.145 43.6915C147.763 43.4435 147.329 43.3195 146.843 43.3195C146.358 43.3195 145.918 43.4435 145.526 43.6915C145.143 43.9395 144.833 44.2702 144.596 44.6835C144.368 45.0865 144.255 45.5412 144.255 46.0475C144.255 46.5642 144.368 47.0292 144.596 47.4425C144.823 47.8558 145.133 48.1865 145.526 48.4345C145.918 48.6722 146.358 48.791 146.843 48.791ZM152.416 50V39.15L153.966 38.8555V50H152.416ZM158.845 50.155C158.236 50.155 157.698 50.0258 157.233 49.7675C156.768 49.5092 156.407 49.1475 156.148 48.6825C155.89 48.2072 155.761 47.6647 155.761 47.055V42.1105H157.295V46.7915C157.295 47.4115 157.471 47.9023 157.822 48.264C158.184 48.6257 158.665 48.8065 159.264 48.8065C159.688 48.8065 160.065 48.7187 160.395 48.543C160.726 48.357 160.995 48.0987 161.201 47.768V42.1105H162.751V50H161.201V49.194C160.592 49.8347 159.806 50.155 158.845 50.155ZM167.965 50.1395C167.201 50.1395 166.617 49.9638 166.214 49.6125C165.811 49.2508 165.609 48.729 165.609 48.047V43.4125H163.935V42.1105H165.609V40.0955L167.144 39.7235V42.1105H169.469V43.4125H167.144V47.6905C167.144 48.0935 167.232 48.3828 167.407 48.5585C167.593 48.7238 167.893 48.8065 168.306 48.8065C168.523 48.8065 168.715 48.791 168.88 48.76C169.056 48.729 169.242 48.6825 169.438 48.6205V49.9225C169.231 49.9948 168.988 50.0465 168.709 50.0775C168.441 50.1188 168.193 50.1395 167.965 50.1395ZM170.611 50V42.1105H172.161V50H170.611ZM171.386 40.8395C171.127 40.8395 170.905 40.7465 170.719 40.5605C170.533 40.3642 170.44 40.1368 170.44 39.8785C170.44 39.6098 170.533 39.3877 170.719 39.212C170.905 39.026 171.127 38.933 171.386 38.933C171.654 38.933 171.882 39.026 172.068 39.212C172.254 39.3877 172.347 39.6098 172.347 39.8785C172.347 40.1368 172.254 40.3642 172.068 40.5605C171.882 40.7465 171.654 40.8395 171.386 40.8395ZM177.737 50.155C176.973 50.155 176.275 49.9742 175.645 49.6125C175.025 49.2508 174.534 48.76 174.172 48.14C173.811 47.52 173.63 46.8277 173.63 46.063C173.63 45.2983 173.811 44.606 174.172 43.986C174.534 43.366 175.025 42.8752 175.645 42.5135C176.275 42.1415 176.973 41.9555 177.737 41.9555C178.512 41.9555 179.21 42.1415 179.83 42.5135C180.45 42.8752 180.941 43.366 181.302 43.986C181.664 44.606 181.845 45.2983 181.845 46.063C181.845 46.8277 181.664 47.52 181.302 48.14C180.941 48.76 180.45 49.2508 179.83 49.6125C179.21 49.9742 178.512 50.155 177.737 50.155ZM177.737 48.791C178.223 48.791 178.662 48.6722 179.055 48.4345C179.447 48.1865 179.757 47.8558 179.985 47.4425C180.212 47.0292 180.326 46.5642 180.326 46.0475C180.326 45.5412 180.207 45.0865 179.969 44.6835C179.742 44.2702 179.432 43.9395 179.039 43.6915C178.657 43.4435 178.223 43.3195 177.737 43.3195C177.252 43.3195 176.812 43.4435 176.42 43.6915C176.037 43.9395 175.727 44.2702 175.49 44.6835C175.262 45.0865 175.149 45.5412 175.149 46.0475C175.149 46.5642 175.262 47.0292 175.49 47.4425C175.717 47.8558 176.027 48.1865 176.42 48.4345C176.812 48.6722 177.252 48.791 177.737 48.791ZM183.31 50V42.1105H184.86V42.9165C185.47 42.2758 186.261 41.9555 187.232 41.9555C187.842 41.9555 188.374 42.0847 188.828 42.343C189.293 42.6013 189.655 42.963 189.913 43.428C190.182 43.893 190.316 44.4303 190.316 45.04V50H188.766V45.3035C188.766 44.6835 188.591 44.1978 188.239 43.8465C187.898 43.4848 187.418 43.304 186.798 43.304C186.385 43.304 186.013 43.3918 185.682 43.5675C185.351 43.7432 185.077 43.9963 184.86 44.327V50H183.31Z" fill="#20282D"/>
</g>
<defs>
<clipPath id="clip0_299_701">
<rect width="193" height="53" fill="white" transform="translate(0.5)"/>
</clipPath>
</defs>
</svg>
