<svg width="202" height="70" viewBox="0 0 202 70" fill="none" xmlns="http://www.w3.org/2000/svg">
<path d="M45.1695 58.9244C58.6031 53.3599 64.9813 37.9564 59.4155 24.5198C53.8498 11.0831 38.4477 4.70149 25.0141 10.266C11.5804 15.8305 5.20229 31.234 10.768 44.6706C16.3338 58.1073 31.7359 64.4889 45.1695 58.9244Z" fill="#0B4DF5"/>
<mask id="mask0_299_714" style="mask-type:luminance" maskUnits="userSpaceOnUse" x="8" y="8" width="54" height="54">
<path d="M24.7746 10.9403C11.2665 16.5356 4.85295 32.0245 10.4496 45.5356C16.0462 59.0467 31.5336 65.4637 45.0417 59.8684C58.5497 54.273 64.9632 38.7842 59.3666 25.2731C53.77 11.7619 38.2826 5.34487 24.7746 10.9403Z" fill="white"/>
</mask>
<g mask="url(#mask0_299_714)">
<path fill-rule="evenodd" clip-rule="evenodd" d="M21.0798 38.82L37.716 22.1839L39.5427 24.0047L47.8223 32.2901L62.1691 17.9433L65.8167 21.5967L47.8223 39.5851L46.0015 37.7643L37.716 29.4789L24.7333 42.4675H36.7196V47.6274H15.9259V26.8278H21.0798V38.82Z" fill="#F2F2F2"/>
</g>
<path d="M77.9815 38V11.8182H84.3097V32.8608H95.2017V38H77.9815ZM107.644 38.3707C105.581 38.3707 103.809 37.9489 102.326 37.1051C100.851 36.2528 99.7134 35.0682 98.9123 33.5511C98.1197 32.0256 97.7234 30.2571 97.7234 28.2457C97.7234 26.2259 98.1197 24.4574 98.9123 22.9403C99.7134 21.4148 100.851 20.2301 102.326 19.3864C103.809 18.5341 105.581 18.108 107.644 18.108C109.706 18.108 111.475 18.5341 112.949 19.3864C114.432 20.2301 115.57 21.4148 116.363 22.9403C117.164 24.4574 117.564 26.2259 117.564 28.2457C117.564 30.2571 117.164 32.0256 116.363 33.5511C115.57 35.0682 114.432 36.2528 112.949 37.1051C111.475 37.9489 109.706 38.3707 107.644 38.3707ZM107.682 33.6534C108.432 33.6534 109.067 33.4233 109.587 32.9631C110.107 32.5028 110.503 31.8636 110.776 31.0455C111.057 30.2273 111.198 29.2812 111.198 28.2074C111.198 27.1165 111.057 26.1619 110.776 25.3438C110.503 24.5256 110.107 23.8864 109.587 23.4261C109.067 22.9659 108.432 22.7358 107.682 22.7358C106.907 22.7358 106.25 22.9659 105.713 23.4261C105.185 23.8864 104.78 24.5256 104.499 25.3438C104.226 26.1619 104.09 27.1165 104.09 28.2074C104.09 29.2812 104.226 30.2273 104.499 31.0455C104.78 31.8636 105.185 32.5028 105.713 32.9631C106.25 33.4233 106.907 33.6534 107.682 33.6534ZM129.92 45.7727C128.054 45.7727 126.456 45.5128 125.126 44.9929C123.797 44.473 122.752 43.7614 121.994 42.858C121.235 41.9545 120.779 40.9318 120.626 39.7898L126.545 39.4574C126.656 39.858 126.86 40.2074 127.159 40.5057C127.466 40.804 127.862 41.0341 128.348 41.196C128.842 41.358 129.422 41.4389 130.086 41.4389C131.135 41.4389 132 41.1832 132.681 40.6719C133.372 40.169 133.717 39.2869 133.717 38.0256V34.5739H133.5C133.252 35.179 132.877 35.7202 132.375 36.1974C131.872 36.6747 131.245 37.0497 130.495 37.3224C129.754 37.5952 128.902 37.7315 127.939 37.7315C126.507 37.7315 125.194 37.3991 124.001 36.7344C122.816 36.0611 121.866 35.0213 121.15 33.6151C120.443 32.2003 120.089 30.3807 120.089 28.1562C120.089 25.8636 120.456 23.9759 121.189 22.4929C121.922 21.0014 122.88 19.8977 124.065 19.1818C125.258 18.4659 126.541 18.108 127.913 18.108C128.944 18.108 129.826 18.2869 130.559 18.6449C131.301 18.9943 131.91 19.446 132.387 20C132.865 20.554 133.227 21.1293 133.474 21.7259H133.653V18.3636H139.879V38.0767C139.879 39.7386 139.461 41.1406 138.626 42.2827C137.791 43.4247 136.623 44.2898 135.123 44.8778C133.623 45.4744 131.889 45.7727 129.92 45.7727ZM130.112 33.1804C130.87 33.1804 131.518 32.9801 132.055 32.5795C132.592 32.179 133.005 31.6037 133.295 30.8537C133.585 30.1037 133.73 29.2045 133.73 28.1562C133.73 27.0909 133.585 26.1747 133.295 25.4077C133.014 24.6321 132.6 24.0355 132.055 23.6179C131.518 23.2003 130.87 22.9915 130.112 22.9915C129.336 22.9915 128.68 23.2045 128.143 23.6307C127.606 24.0568 127.197 24.6577 126.916 25.4332C126.643 26.2003 126.507 27.108 126.507 28.1562C126.507 29.2045 126.647 30.1037 126.929 30.8537C127.21 31.6037 127.615 32.179 128.143 32.5795C128.68 32.9801 129.336 33.1804 130.112 33.1804ZM153.031 38.3707C150.968 38.3707 149.195 37.9489 147.712 37.1051C146.238 36.2528 145.1 35.0682 144.299 33.5511C143.506 32.0256 143.11 30.2571 143.11 28.2457C143.11 26.2259 143.506 24.4574 144.299 22.9403C145.1 21.4148 146.238 20.2301 147.712 19.3864C149.195 18.5341 150.968 18.108 153.031 18.108C155.093 18.108 156.862 18.5341 158.336 19.3864C159.819 20.2301 160.957 21.4148 161.749 22.9403C162.55 24.4574 162.951 26.2259 162.951 28.2457C162.951 30.2571 162.55 32.0256 161.749 33.5511C160.957 35.0682 159.819 36.2528 158.336 37.1051C156.862 37.9489 155.093 38.3707 153.031 38.3707ZM153.069 33.6534C153.819 33.6534 154.454 33.4233 154.974 32.9631C155.494 32.5028 155.89 31.8636 156.163 31.0455C156.444 30.2273 156.585 29.2812 156.585 28.2074C156.585 27.1165 156.444 26.1619 156.163 25.3438C155.89 24.5256 155.494 23.8864 154.974 23.4261C154.454 22.9659 153.819 22.7358 153.069 22.7358C152.293 22.7358 151.637 22.9659 151.1 23.4261C150.572 23.8864 150.167 24.5256 149.886 25.3438C149.613 26.1619 149.477 27.1165 149.477 28.2074C149.477 29.2812 149.613 30.2273 149.886 31.0455C150.167 31.8636 150.572 32.5028 151.1 32.9631C151.637 33.4233 152.293 33.6534 153.069 33.6534Z" fill="black"/>
<path d="M76.5938 58V47.15H81.2903C82.0033 47.15 82.6233 47.2688 83.1503 47.5065C83.6773 47.7442 84.0854 48.08 84.3748 48.514C84.6641 48.9377 84.8088 49.4388 84.8088 50.0175C84.8088 50.5445 84.6744 51.0095 84.4058 51.4125C84.1371 51.8155 83.7599 52.1358 83.2743 52.3735C83.8839 52.5905 84.3593 52.9212 84.7003 53.3655C85.0516 53.7995 85.2273 54.311 85.2273 54.9C85.2273 55.5303 85.0723 56.078 84.7623 56.543C84.4523 57.008 84.0183 57.3697 83.4603 57.628C82.9023 57.876 82.2461 58 81.4918 58H76.5938ZM78.2213 51.7535H81.1973C81.8069 51.7535 82.2926 51.6088 82.6543 51.3195C83.0159 51.0302 83.1968 50.6375 83.1968 50.1415C83.1968 49.6455 83.0159 49.2528 82.6543 48.9635C82.2926 48.6742 81.8069 48.5295 81.1973 48.5295H78.2213V51.7535ZM78.2213 56.6205H81.3678C82.0498 56.6205 82.5871 56.4603 82.9798 56.14C83.3828 55.8197 83.5843 55.3857 83.5843 54.838C83.5843 54.3007 83.3828 53.8718 82.9798 53.5515C82.5871 53.2208 82.0498 53.0555 81.3678 53.0555H78.2213V56.6205ZM89.7088 58.155C89.0992 58.155 88.5618 58.0258 88.0968 57.7675C87.6318 57.5092 87.2702 57.1475 87.0118 56.6825C86.7535 56.2072 86.6243 55.6647 86.6243 55.055V50.1105H88.1588V54.7915C88.1588 55.4115 88.3345 55.9023 88.6858 56.264C89.0475 56.6257 89.528 56.8065 90.1273 56.8065C90.551 56.8065 90.9282 56.7187 91.2588 56.543C91.5895 56.357 91.8582 56.0987 92.0648 55.768V50.1105H93.6148V58H92.0648V57.194C91.4552 57.8347 90.6698 58.155 89.7088 58.155ZM98.1623 58.155C97.4803 58.155 96.8395 58.0568 96.2402 57.8605C95.6512 57.6538 95.1398 57.3645 94.7058 56.9925L95.5583 55.9695C95.9613 56.2898 96.3746 56.5378 96.7983 56.7135C97.2323 56.8788 97.6714 56.9615 98.1158 56.9615C98.6738 56.9615 99.1284 56.853 99.4798 56.636C99.8311 56.419 100.007 56.1348 100.007 55.7835C100.007 55.4942 99.9034 55.2668 99.6968 55.1015C99.4901 54.9362 99.1698 54.8225 98.7358 54.7605L97.3098 54.559C96.5244 54.4453 95.9354 54.2025 95.5428 53.8305C95.1501 53.4585 94.9538 52.9625 94.9538 52.3425C94.9538 51.8672 95.0829 51.4538 95.3413 51.1025C95.5996 50.7408 95.9613 50.4618 96.4263 50.2655C96.8913 50.0588 97.4338 49.9555 98.0538 49.9555C98.6221 49.9555 99.1698 50.0382 99.6968 50.2035C100.224 50.3688 100.73 50.6272 101.216 50.9785L100.425 52.0015C99.9913 51.7122 99.5676 51.5003 99.1543 51.366C98.7513 51.2317 98.3431 51.1645 97.9298 51.1645C97.4544 51.1645 97.0721 51.2678 96.7828 51.4745C96.4934 51.6708 96.3488 51.9292 96.3488 52.2495C96.3488 52.5388 96.4469 52.7662 96.6433 52.9315C96.8499 53.0865 97.1858 53.195 97.6508 53.257L99.0768 53.4585C99.8621 53.5722 100.456 53.815 100.859 54.187C101.262 54.5487 101.464 55.0395 101.464 55.6595C101.464 56.1348 101.319 56.5637 101.03 56.946C100.74 57.318 100.348 57.6125 99.8518 57.8295C99.3558 58.0465 98.7926 58.155 98.1623 58.155ZM102.655 58V50.1105H104.205V58H102.655ZM103.43 48.8395C103.171 48.8395 102.949 48.7465 102.763 48.5605C102.577 48.3642 102.484 48.1368 102.484 47.8785C102.484 47.6098 102.577 47.3877 102.763 47.212C102.949 47.026 103.171 46.933 103.43 46.933C103.698 46.933 103.926 47.026 104.112 47.212C104.298 47.3877 104.391 47.6098 104.391 47.8785C104.391 48.1368 104.298 48.3642 104.112 48.5605C103.926 48.7465 103.698 48.8395 103.43 48.8395ZM106.03 58V50.1105H107.58V50.9165C108.19 50.2758 108.98 49.9555 109.952 49.9555C110.561 49.9555 111.094 50.0847 111.548 50.343C112.013 50.6013 112.375 50.963 112.633 51.428C112.902 51.893 113.036 52.4303 113.036 53.04V58H111.486V53.3035C111.486 52.6835 111.311 52.1978 110.959 51.8465C110.618 51.4848 110.138 51.304 109.518 51.304C109.104 51.304 108.732 51.3918 108.402 51.5675C108.071 51.7432 107.797 51.9963 107.58 52.327V58H106.03ZM118.607 58.1395C117.832 58.1395 117.129 57.9587 116.499 57.597C115.879 57.2353 115.383 56.7445 115.011 56.1245C114.649 55.5045 114.468 54.8122 114.468 54.0475C114.468 53.2932 114.644 52.6112 114.995 52.0015C115.346 51.3815 115.822 50.8907 116.421 50.529C117.02 50.157 117.687 49.971 118.421 49.971C119.154 49.971 119.805 50.157 120.374 50.529C120.942 50.8907 121.391 51.3867 121.722 52.017C122.063 52.637 122.234 53.3397 122.234 54.125V54.559H116.018C116.101 54.993 116.261 55.3805 116.499 55.7215C116.747 56.0625 117.057 56.3312 117.429 56.5275C117.811 56.7238 118.224 56.822 118.669 56.822C119.051 56.822 119.418 56.7652 119.769 56.6515C120.131 56.5275 120.43 56.3518 120.668 56.1245L121.66 57.101C121.195 57.4523 120.715 57.7158 120.219 57.8915C119.733 58.0568 119.196 58.1395 118.607 58.1395ZM116.034 53.3965H120.699C120.637 52.9832 120.492 52.6215 120.265 52.3115C120.048 51.9912 119.774 51.7432 119.444 51.5675C119.123 51.3815 118.772 51.2885 118.39 51.2885C117.997 51.2885 117.635 51.3763 117.305 51.552C116.974 51.7277 116.695 51.9757 116.468 52.296C116.251 52.606 116.106 52.9728 116.034 53.3965ZM126.498 58.155C125.816 58.155 125.175 58.0568 124.576 57.8605C123.987 57.6538 123.476 57.3645 123.042 56.9925L123.894 55.9695C124.297 56.2898 124.71 56.5378 125.134 56.7135C125.568 56.8788 126.007 56.9615 126.452 56.9615C127.01 56.9615 127.464 56.853 127.816 56.636C128.167 56.419 128.343 56.1348 128.343 55.7835C128.343 55.4942 128.239 55.2668 128.033 55.1015C127.826 54.9362 127.506 54.8225 127.072 54.7605L125.646 54.559C124.86 54.4453 124.271 54.2025 123.879 53.8305C123.486 53.4585 123.29 52.9625 123.29 52.3425C123.29 51.8672 123.419 51.4538 123.677 51.1025C123.935 50.7408 124.297 50.4618 124.762 50.2655C125.227 50.0588 125.77 49.9555 126.39 49.9555C126.958 49.9555 127.506 50.0382 128.033 50.2035C128.56 50.3688 129.066 50.6272 129.552 50.9785L128.761 52.0015C128.327 51.7122 127.903 51.5003 127.49 51.366C127.087 51.2317 126.679 51.1645 126.266 51.1645C125.79 51.1645 125.408 51.2678 125.119 51.4745C124.829 51.6708 124.685 51.9292 124.685 52.2495C124.685 52.5388 124.783 52.7662 124.979 52.9315C125.186 53.0865 125.522 53.195 125.987 53.257L127.413 53.4585C128.198 53.5722 128.792 53.815 129.195 54.187C129.598 54.5487 129.8 55.0395 129.8 55.6595C129.8 56.1348 129.655 56.5637 129.366 56.946C129.076 57.318 128.684 57.6125 128.188 57.8295C127.692 58.0465 127.128 58.155 126.498 58.155ZM133.703 58.155C133.021 58.155 132.381 58.0568 131.781 57.8605C131.192 57.6538 130.681 57.3645 130.247 56.9925L131.099 55.9695C131.502 56.2898 131.916 56.5378 132.339 56.7135C132.773 56.8788 133.212 56.9615 133.657 56.9615C134.215 56.9615 134.669 56.853 135.021 56.636C135.372 56.419 135.548 56.1348 135.548 55.7835C135.548 55.4942 135.444 55.2668 135.238 55.1015C135.031 54.9362 134.711 54.8225 134.277 54.7605L132.851 54.559C132.065 54.4453 131.476 54.2025 131.084 53.8305C130.691 53.4585 130.495 52.9625 130.495 52.3425C130.495 51.8672 130.624 51.4538 130.882 51.1025C131.141 50.7408 131.502 50.4618 131.967 50.2655C132.432 50.0588 132.975 49.9555 133.595 49.9555C134.163 49.9555 134.711 50.0382 135.238 50.2035C135.765 50.3688 136.271 50.6272 136.757 50.9785L135.966 52.0015C135.532 51.7122 135.109 51.5003 134.695 51.366C134.292 51.2317 133.884 51.1645 133.471 51.1645C132.995 51.1645 132.613 51.2678 132.324 51.4745C132.034 51.6708 131.89 51.9292 131.89 52.2495C131.89 52.5388 131.988 52.7662 132.184 52.9315C132.391 53.0865 132.727 53.195 133.192 53.257L134.618 53.4585C135.403 53.5722 135.997 53.815 136.4 54.187C136.803 54.5487 137.005 55.0395 137.005 55.6595C137.005 56.1348 136.86 56.5637 136.571 56.946C136.281 57.318 135.889 57.6125 135.393 57.8295C134.897 58.0465 134.334 58.155 133.703 58.155ZM145.295 58.155C144.427 58.155 143.59 57.9845 142.784 57.6435C141.978 57.3025 141.265 56.822 140.645 56.202L141.637 55.055C142.226 55.6337 142.825 56.0625 143.435 56.3415C144.055 56.6205 144.7 56.76 145.372 56.76C145.899 56.76 146.359 56.6877 146.752 56.543C147.155 56.388 147.465 56.171 147.682 55.892C147.899 55.613 148.007 55.2978 148.007 54.9465C148.007 54.4608 147.837 54.0888 147.496 53.8305C147.155 53.5722 146.591 53.3758 145.806 53.2415L143.993 52.947C143.001 52.7713 142.257 52.451 141.761 51.986C141.275 51.521 141.032 50.901 141.032 50.126C141.032 49.506 141.197 48.9635 141.528 48.4985C141.859 48.0232 142.324 47.6563 142.923 47.398C143.533 47.1397 144.235 47.0105 145.031 47.0105C145.816 47.0105 146.586 47.1397 147.341 47.398C148.105 47.646 148.792 48.0077 149.402 48.483L148.503 49.723C147.335 48.8343 146.152 48.39 144.954 48.39C144.478 48.39 144.065 48.4572 143.714 48.5915C143.362 48.7258 143.088 48.917 142.892 49.165C142.696 49.4027 142.598 49.6817 142.598 50.002C142.598 50.4463 142.747 50.7873 143.047 51.025C143.347 51.2523 143.843 51.4177 144.535 51.521L146.287 51.8155C147.434 52.0015 148.276 52.3373 148.813 52.823C149.35 53.3087 149.619 53.9752 149.619 54.8225C149.619 55.4838 149.438 56.0677 149.077 56.574C148.715 57.07 148.209 57.4575 147.558 57.7365C146.907 58.0155 146.152 58.155 145.295 58.155ZM154.843 58.155C154.079 58.155 153.381 57.9742 152.751 57.6125C152.131 57.2508 151.64 56.76 151.278 56.14C150.917 55.52 150.736 54.8277 150.736 54.063C150.736 53.2983 150.917 52.606 151.278 51.986C151.64 51.366 152.131 50.8752 152.751 50.5135C153.381 50.1415 154.079 49.9555 154.843 49.9555C155.618 49.9555 156.316 50.1415 156.936 50.5135C157.556 50.8752 158.047 51.366 158.408 51.986C158.77 52.606 158.951 53.2983 158.951 54.063C158.951 54.8277 158.77 55.52 158.408 56.14C158.047 56.76 157.556 57.2508 156.936 57.6125C156.316 57.9742 155.618 58.155 154.843 58.155ZM154.843 56.791C155.329 56.791 155.768 56.6722 156.161 56.4345C156.553 56.1865 156.863 55.8558 157.091 55.4425C157.318 55.0292 157.432 54.5642 157.432 54.0475C157.432 53.5412 157.313 53.0865 157.075 52.6835C156.848 52.2702 156.538 51.9395 156.145 51.6915C155.763 51.4435 155.329 51.3195 154.843 51.3195C154.358 51.3195 153.918 51.4435 153.526 51.6915C153.143 51.9395 152.833 52.2702 152.596 52.6835C152.368 53.0865 152.255 53.5412 152.255 54.0475C152.255 54.5642 152.368 55.0292 152.596 55.4425C152.823 55.8558 153.133 56.1865 153.526 56.4345C153.918 56.6722 154.358 56.791 154.843 56.791ZM160.416 58V47.15L161.966 46.8555V58H160.416ZM166.845 58.155C166.236 58.155 165.698 58.0258 165.233 57.7675C164.768 57.5092 164.407 57.1475 164.148 56.6825C163.89 56.2072 163.761 55.6647 163.761 55.055V50.1105H165.295V54.7915C165.295 55.4115 165.471 55.9023 165.822 56.264C166.184 56.6257 166.665 56.8065 167.264 56.8065C167.688 56.8065 168.065 56.7187 168.395 56.543C168.726 56.357 168.995 56.0987 169.201 55.768V50.1105H170.751V58H169.201V57.194C168.592 57.8347 167.806 58.155 166.845 58.155ZM175.965 58.1395C175.201 58.1395 174.617 57.9638 174.214 57.6125C173.811 57.2508 173.609 56.729 173.609 56.047V51.4125H171.935V50.1105H173.609V48.0955L175.144 47.7235V50.1105H177.469V51.4125H175.144V55.6905C175.144 56.0935 175.232 56.3828 175.407 56.5585C175.593 56.7238 175.893 56.8065 176.306 56.8065C176.523 56.8065 176.715 56.791 176.88 56.76C177.056 56.729 177.242 56.6825 177.438 56.6205V57.9225C177.231 57.9948 176.988 58.0465 176.709 58.0775C176.441 58.1188 176.193 58.1395 175.965 58.1395ZM178.611 58V50.1105H180.161V58H178.611ZM179.386 48.8395C179.127 48.8395 178.905 48.7465 178.719 48.5605C178.533 48.3642 178.44 48.1368 178.44 47.8785C178.44 47.6098 178.533 47.3877 178.719 47.212C178.905 47.026 179.127 46.933 179.386 46.933C179.654 46.933 179.882 47.026 180.068 47.212C180.254 47.3877 180.347 47.6098 180.347 47.8785C180.347 48.1368 180.254 48.3642 180.068 48.5605C179.882 48.7465 179.654 48.8395 179.386 48.8395ZM185.737 58.155C184.973 58.155 184.275 57.9742 183.645 57.6125C183.025 57.2508 182.534 56.76 182.172 56.14C181.811 55.52 181.63 54.8277 181.63 54.063C181.63 53.2983 181.811 52.606 182.172 51.986C182.534 51.366 183.025 50.8752 183.645 50.5135C184.275 50.1415 184.973 49.9555 185.737 49.9555C186.512 49.9555 187.21 50.1415 187.83 50.5135C188.45 50.8752 188.941 51.366 189.302 51.986C189.664 52.606 189.845 53.2983 189.845 54.063C189.845 54.8277 189.664 55.52 189.302 56.14C188.941 56.76 188.45 57.2508 187.83 57.6125C187.21 57.9742 186.512 58.155 185.737 58.155ZM185.737 56.791C186.223 56.791 186.662 56.6722 187.055 56.4345C187.447 56.1865 187.757 55.8558 187.985 55.4425C188.212 55.0292 188.326 54.5642 188.326 54.0475C188.326 53.5412 188.207 53.0865 187.969 52.6835C187.742 52.2702 187.432 51.9395 187.039 51.6915C186.657 51.4435 186.223 51.3195 185.737 51.3195C185.252 51.3195 184.812 51.4435 184.42 51.6915C184.037 51.9395 183.727 52.2702 183.49 52.6835C183.262 53.0865 183.149 53.5412 183.149 54.0475C183.149 54.5642 183.262 55.0292 183.49 55.4425C183.717 55.8558 184.027 56.1865 184.42 56.4345C184.812 56.6722 185.252 56.791 185.737 56.791ZM191.31 58V50.1105H192.86V50.9165C193.47 50.2758 194.261 49.9555 195.232 49.9555C195.842 49.9555 196.374 50.0847 196.828 50.343C197.293 50.6013 197.655 50.963 197.913 51.428C198.182 51.893 198.316 52.4303 198.316 53.04V58H196.766V53.3035C196.766 52.6835 196.591 52.1978 196.239 51.8465C195.898 51.4848 195.418 51.304 194.798 51.304C194.385 51.304 194.013 51.3918 193.682 51.5675C193.351 51.7432 193.077 51.9963 192.86 52.327V58H191.31Z" fill="#20282D"/>
</svg>
