<svg width="202" height="70" viewBox="0 0 202 70" fill="none" xmlns="http://www.w3.org/2000/svg">
<path d="M45.1705 58.9244C58.6041 53.3599 64.9823 37.9564 59.4165 24.5198C53.8507 11.0831 38.4487 4.70149 25.0151 10.266C11.5814 15.8305 5.20325 31.234 10.769 44.6706C16.3348 58.1073 31.7368 64.4889 45.1705 58.9244Z" fill="#E04700"/>
<mask id="mask0_299_772" style="mask-type:luminance" maskUnits="userSpaceOnUse" x="8" y="8" width="54" height="54">
<path d="M24.7746 10.9403C11.2665 16.5356 4.85295 32.0245 10.4496 45.5356C16.0462 59.0467 31.5336 65.4637 45.0417 59.8684C58.5497 54.273 64.9632 38.7842 59.3666 25.2731C53.77 11.7619 38.2826 5.34487 24.7746 10.9403Z" fill="white"/>
</mask>
<g mask="url(#mask0_299_772)">
<path fill-rule="evenodd" clip-rule="evenodd" d="M21.0798 38.82L37.716 22.1839L39.5427 24.0047L47.8223 32.2901L62.1691 17.9433L65.8167 21.5967L47.8223 39.5851L46.0015 37.7643L37.716 29.4789L24.7333 42.4675H36.7196V47.6274H15.9259V26.8278H21.0798V38.82Z" fill="#F2F2F2"/>
</g>
<path d="M76.9815 38V11.8182H83.3097V32.8608H94.2017V38H76.9815ZM106.644 38.3707C104.581 38.3707 102.809 37.9489 101.326 37.1051C99.8512 36.2528 98.7134 35.0682 97.9123 33.5511C97.1197 32.0256 96.7234 30.2571 96.7234 28.2457C96.7234 26.2259 97.1197 24.4574 97.9123 22.9403C98.7134 21.4148 99.8512 20.2301 101.326 19.3864C102.809 18.5341 104.581 18.108 106.644 18.108C108.706 18.108 110.475 18.5341 111.949 19.3864C113.432 20.2301 114.57 21.4148 115.363 22.9403C116.164 24.4574 116.564 26.2259 116.564 28.2457C116.564 30.2571 116.164 32.0256 115.363 33.5511C114.57 35.0682 113.432 36.2528 111.949 37.1051C110.475 37.9489 108.706 38.3707 106.644 38.3707ZM106.682 33.6534C107.432 33.6534 108.067 33.4233 108.587 32.9631C109.107 32.5028 109.503 31.8636 109.776 31.0455C110.057 30.2273 110.198 29.2812 110.198 28.2074C110.198 27.1165 110.057 26.1619 109.776 25.3438C109.503 24.5256 109.107 23.8864 108.587 23.4261C108.067 22.9659 107.432 22.7358 106.682 22.7358C105.907 22.7358 105.25 22.9659 104.713 23.4261C104.185 23.8864 103.78 24.5256 103.499 25.3438C103.226 26.1619 103.09 27.1165 103.09 28.2074C103.09 29.2812 103.226 30.2273 103.499 31.0455C103.78 31.8636 104.185 32.5028 104.713 32.9631C105.25 33.4233 105.907 33.6534 106.682 33.6534ZM128.92 45.7727C127.054 45.7727 125.456 45.5128 124.126 44.9929C122.797 44.473 121.752 43.7614 120.994 42.858C120.235 41.9545 119.779 40.9318 119.626 39.7898L125.545 39.4574C125.656 39.858 125.86 40.2074 126.159 40.5057C126.466 40.804 126.862 41.0341 127.348 41.196C127.842 41.358 128.422 41.4389 129.086 41.4389C130.135 41.4389 131 41.1832 131.681 40.6719C132.372 40.169 132.717 39.2869 132.717 38.0256V34.5739H132.5C132.252 35.179 131.877 35.7202 131.375 36.1974C130.872 36.6747 130.245 37.0497 129.495 37.3224C128.754 37.5952 127.902 37.7315 126.939 37.7315C125.507 37.7315 124.194 37.3991 123.001 36.7344C121.816 36.0611 120.866 35.0213 120.15 33.6151C119.443 32.2003 119.089 30.3807 119.089 28.1562C119.089 25.8636 119.456 23.9759 120.189 22.4929C120.922 21.0014 121.88 19.8977 123.065 19.1818C124.258 18.4659 125.541 18.108 126.913 18.108C127.944 18.108 128.826 18.2869 129.559 18.6449C130.301 18.9943 130.91 19.446 131.387 20C131.865 20.554 132.227 21.1293 132.474 21.7259H132.653V18.3636H138.879V38.0767C138.879 39.7386 138.461 41.1406 137.626 42.2827C136.791 43.4247 135.623 44.2898 134.123 44.8778C132.623 45.4744 130.889 45.7727 128.92 45.7727ZM129.112 33.1804C129.87 33.1804 130.518 32.9801 131.055 32.5795C131.592 32.179 132.005 31.6037 132.295 30.8537C132.585 30.1037 132.73 29.2045 132.73 28.1562C132.73 27.0909 132.585 26.1747 132.295 25.4077C132.014 24.6321 131.6 24.0355 131.055 23.6179C130.518 23.2003 129.87 22.9915 129.112 22.9915C128.336 22.9915 127.68 23.2045 127.143 23.6307C126.606 24.0568 126.197 24.6577 125.916 25.4332C125.643 26.2003 125.507 27.108 125.507 28.1562C125.507 29.2045 125.647 30.1037 125.929 30.8537C126.21 31.6037 126.615 32.179 127.143 32.5795C127.68 32.9801 128.336 33.1804 129.112 33.1804ZM152.031 38.3707C149.968 38.3707 148.195 37.9489 146.712 37.1051C145.238 36.2528 144.1 35.0682 143.299 33.5511C142.506 32.0256 142.11 30.2571 142.11 28.2457C142.11 26.2259 142.506 24.4574 143.299 22.9403C144.1 21.4148 145.238 20.2301 146.712 19.3864C148.195 18.5341 149.968 18.108 152.031 18.108C154.093 18.108 155.862 18.5341 157.336 19.3864C158.819 20.2301 159.957 21.4148 160.749 22.9403C161.55 24.4574 161.951 26.2259 161.951 28.2457C161.951 30.2571 161.55 32.0256 160.749 33.5511C159.957 35.0682 158.819 36.2528 157.336 37.1051C155.862 37.9489 154.093 38.3707 152.031 38.3707ZM152.069 33.6534C152.819 33.6534 153.454 33.4233 153.974 32.9631C154.494 32.5028 154.89 31.8636 155.163 31.0455C155.444 30.2273 155.585 29.2812 155.585 28.2074C155.585 27.1165 155.444 26.1619 155.163 25.3438C154.89 24.5256 154.494 23.8864 153.974 23.4261C153.454 22.9659 152.819 22.7358 152.069 22.7358C151.293 22.7358 150.637 22.9659 150.1 23.4261C149.572 23.8864 149.167 24.5256 148.886 25.3438C148.613 26.1619 148.477 27.1165 148.477 28.2074C148.477 29.2812 148.613 30.2273 148.886 31.0455C149.167 31.8636 149.572 32.5028 150.1 32.9631C150.637 33.4233 151.293 33.6534 152.069 33.6534Z" fill="black"/>
<path d="M76.5928 58V47.15H81.2893C82.0023 47.15 82.6223 47.2688 83.1493 47.5065C83.6763 47.7442 84.0845 48.08 84.3738 48.514C84.6631 48.9377 84.8078 49.4388 84.8078 50.0175C84.8078 50.5445 84.6735 51.0095 84.4048 51.4125C84.1361 51.8155 83.759 52.1358 83.2733 52.3735C83.883 52.5905 84.3583 52.9212 84.6993 53.3655C85.0506 53.7995 85.2263 54.311 85.2263 54.9C85.2263 55.5303 85.0713 56.078 84.7613 56.543C84.4513 57.008 84.0173 57.3697 83.4593 57.628C82.9013 57.876 82.2451 58 81.4908 58H76.5928ZM78.2203 51.7535H81.1963C81.806 51.7535 82.2916 51.6088 82.6533 51.3195C83.015 51.0302 83.1958 50.6375 83.1958 50.1415C83.1958 49.6455 83.015 49.2528 82.6533 48.9635C82.2916 48.6742 81.806 48.5295 81.1963 48.5295H78.2203V51.7535ZM78.2203 56.6205H81.3668C82.0488 56.6205 82.5861 56.4603 82.9788 56.14C83.3818 55.8197 83.5833 55.3857 83.5833 54.838C83.5833 54.3007 83.3818 53.8718 82.9788 53.5515C82.5861 53.2208 82.0488 53.0555 81.3668 53.0555H78.2203V56.6205ZM89.7078 58.155C89.0982 58.155 88.5608 58.0258 88.0958 57.7675C87.6308 57.5092 87.2692 57.1475 87.0108 56.6825C86.7525 56.2072 86.6233 55.6647 86.6233 55.055V50.1105H88.1578V54.7915C88.1578 55.4115 88.3335 55.9023 88.6848 56.264C89.0465 56.6257 89.527 56.8065 90.1263 56.8065C90.55 56.8065 90.9272 56.7187 91.2578 56.543C91.5885 56.357 91.8572 56.0987 92.0638 55.768V50.1105H93.6138V58H92.0638V57.194C91.4542 57.8347 90.6688 58.155 89.7078 58.155ZM98.1613 58.155C97.4793 58.155 96.8386 58.0568 96.2393 57.8605C95.6503 57.6538 95.1388 57.3645 94.7048 56.9925L95.5573 55.9695C95.9603 56.2898 96.3736 56.5378 96.7973 56.7135C97.2313 56.8788 97.6704 56.9615 98.1148 56.9615C98.6728 56.9615 99.1274 56.853 99.4788 56.636C99.8301 56.419 100.006 56.1348 100.006 55.7835C100.006 55.4942 99.9024 55.2668 99.6958 55.1015C99.4891 54.9362 99.1688 54.8225 98.7348 54.7605L97.3088 54.559C96.5234 54.4453 95.9344 54.2025 95.5418 53.8305C95.1491 53.4585 94.9528 52.9625 94.9528 52.3425C94.9528 51.8672 95.0819 51.4538 95.3403 51.1025C95.5986 50.7408 95.9603 50.4618 96.4253 50.2655C96.8903 50.0588 97.4328 49.9555 98.0528 49.9555C98.6211 49.9555 99.1688 50.0382 99.6958 50.2035C100.223 50.3688 100.729 50.6272 101.215 50.9785L100.424 52.0015C99.9903 51.7122 99.5666 51.5003 99.1533 51.366C98.7503 51.2317 98.3421 51.1645 97.9288 51.1645C97.4534 51.1645 97.0711 51.2678 96.7818 51.4745C96.4924 51.6708 96.3478 51.9292 96.3478 52.2495C96.3478 52.5388 96.4459 52.7662 96.6423 52.9315C96.8489 53.0865 97.1848 53.195 97.6498 53.257L99.0758 53.4585C99.8611 53.5722 100.455 53.815 100.858 54.187C101.261 54.5487 101.463 55.0395 101.463 55.6595C101.463 56.1348 101.318 56.5637 101.029 56.946C100.739 57.318 100.347 57.6125 99.8508 57.8295C99.3548 58.0465 98.7916 58.155 98.1613 58.155ZM102.654 58V50.1105H104.204V58H102.654ZM103.429 48.8395C103.17 48.8395 102.948 48.7465 102.762 48.5605C102.576 48.3642 102.483 48.1368 102.483 47.8785C102.483 47.6098 102.576 47.3877 102.762 47.212C102.948 47.026 103.17 46.933 103.429 46.933C103.697 46.933 103.925 47.026 104.111 47.212C104.297 47.3877 104.39 47.6098 104.39 47.8785C104.39 48.1368 104.297 48.3642 104.111 48.5605C103.925 48.7465 103.697 48.8395 103.429 48.8395ZM106.029 58V50.1105H107.579V50.9165C108.189 50.2758 108.979 49.9555 109.951 49.9555C110.56 49.9555 111.093 50.0847 111.547 50.343C112.012 50.6013 112.374 50.963 112.632 51.428C112.901 51.893 113.035 52.4303 113.035 53.04V58H111.485V53.3035C111.485 52.6835 111.31 52.1978 110.958 51.8465C110.617 51.4848 110.137 51.304 109.517 51.304C109.103 51.304 108.731 51.3918 108.401 51.5675C108.07 51.7432 107.796 51.9963 107.579 52.327V58H106.029ZM118.606 58.1395C117.831 58.1395 117.128 57.9587 116.498 57.597C115.878 57.2353 115.382 56.7445 115.01 56.1245C114.648 55.5045 114.467 54.8122 114.467 54.0475C114.467 53.2932 114.643 52.6112 114.994 52.0015C115.346 51.3815 115.821 50.8907 116.42 50.529C117.02 50.157 117.686 49.971 118.42 49.971C119.153 49.971 119.804 50.157 120.373 50.529C120.941 50.8907 121.391 51.3867 121.721 52.017C122.062 52.637 122.233 53.3397 122.233 54.125V54.559H116.017C116.1 54.993 116.26 55.3805 116.498 55.7215C116.746 56.0625 117.056 56.3312 117.428 56.5275C117.81 56.7238 118.223 56.822 118.668 56.822C119.05 56.822 119.417 56.7652 119.768 56.6515C120.13 56.5275 120.43 56.3518 120.667 56.1245L121.659 57.101C121.194 57.4523 120.714 57.7158 120.218 57.8915C119.732 58.0568 119.195 58.1395 118.606 58.1395ZM116.033 53.3965H120.698C120.636 52.9832 120.492 52.6215 120.264 52.3115C120.047 51.9912 119.773 51.7432 119.443 51.5675C119.122 51.3815 118.771 51.2885 118.389 51.2885C117.996 51.2885 117.634 51.3763 117.304 51.552C116.973 51.7277 116.694 51.9757 116.467 52.296C116.25 52.606 116.105 52.9728 116.033 53.3965ZM126.497 58.155C125.815 58.155 125.174 58.0568 124.575 57.8605C123.986 57.6538 123.475 57.3645 123.041 56.9925L123.893 55.9695C124.296 56.2898 124.709 56.5378 125.133 56.7135C125.567 56.8788 126.006 56.9615 126.451 56.9615C127.009 56.9615 127.463 56.853 127.815 56.636C128.166 56.419 128.342 56.1348 128.342 55.7835C128.342 55.4942 128.238 55.2668 128.032 55.1015C127.825 54.9362 127.505 54.8225 127.071 54.7605L125.645 54.559C124.859 54.4453 124.27 54.2025 123.878 53.8305C123.485 53.4585 123.289 52.9625 123.289 52.3425C123.289 51.8672 123.418 51.4538 123.676 51.1025C123.934 50.7408 124.296 50.4618 124.761 50.2655C125.226 50.0588 125.769 49.9555 126.389 49.9555C126.957 49.9555 127.505 50.0382 128.032 50.2035C128.559 50.3688 129.065 50.6272 129.551 50.9785L128.76 52.0015C128.326 51.7122 127.902 51.5003 127.489 51.366C127.086 51.2317 126.678 51.1645 126.265 51.1645C125.789 51.1645 125.407 51.2678 125.118 51.4745C124.828 51.6708 124.684 51.9292 124.684 52.2495C124.684 52.5388 124.782 52.7662 124.978 52.9315C125.185 53.0865 125.521 53.195 125.986 53.257L127.412 53.4585C128.197 53.5722 128.791 53.815 129.194 54.187C129.597 54.5487 129.799 55.0395 129.799 55.6595C129.799 56.1348 129.654 56.5637 129.365 56.946C129.075 57.318 128.683 57.6125 128.187 57.8295C127.691 58.0465 127.127 58.155 126.497 58.155ZM133.702 58.155C133.02 58.155 132.38 58.0568 131.78 57.8605C131.191 57.6538 130.68 57.3645 130.246 56.9925L131.098 55.9695C131.501 56.2898 131.915 56.5378 132.338 56.7135C132.772 56.8788 133.211 56.9615 133.656 56.9615C134.214 56.9615 134.668 56.853 135.02 56.636C135.371 56.419 135.547 56.1348 135.547 55.7835C135.547 55.4942 135.443 55.2668 135.237 55.1015C135.03 54.9362 134.71 54.8225 134.276 54.7605L132.85 54.559C132.064 54.4453 131.475 54.2025 131.083 53.8305C130.69 53.4585 130.494 52.9625 130.494 52.3425C130.494 51.8672 130.623 51.4538 130.881 51.1025C131.14 50.7408 131.501 50.4618 131.966 50.2655C132.431 50.0588 132.974 49.9555 133.594 49.9555C134.162 49.9555 134.71 50.0382 135.237 50.2035C135.764 50.3688 136.27 50.6272 136.756 50.9785L135.965 52.0015C135.531 51.7122 135.108 51.5003 134.694 51.366C134.291 51.2317 133.883 51.1645 133.47 51.1645C132.994 51.1645 132.612 51.2678 132.323 51.4745C132.033 51.6708 131.889 51.9292 131.889 52.2495C131.889 52.5388 131.987 52.7662 132.183 52.9315C132.39 53.0865 132.726 53.195 133.191 53.257L134.617 53.4585C135.402 53.5722 135.996 53.815 136.399 54.187C136.802 54.5487 137.004 55.0395 137.004 55.6595C137.004 56.1348 136.859 56.5637 136.57 56.946C136.28 57.318 135.888 57.6125 135.392 57.8295C134.896 58.0465 134.333 58.155 133.702 58.155ZM145.294 58.155C144.426 58.155 143.589 57.9845 142.783 57.6435C141.977 57.3025 141.264 56.822 140.644 56.202L141.636 55.055C142.225 55.6337 142.824 56.0625 143.434 56.3415C144.054 56.6205 144.699 56.76 145.371 56.76C145.898 56.76 146.358 56.6877 146.751 56.543C147.154 56.388 147.464 56.171 147.681 55.892C147.898 55.613 148.006 55.2978 148.006 54.9465C148.006 54.4608 147.836 54.0888 147.495 53.8305C147.154 53.5722 146.59 53.3758 145.805 53.2415L143.992 52.947C143 52.7713 142.256 52.451 141.76 51.986C141.274 51.521 141.031 50.901 141.031 50.126C141.031 49.506 141.196 48.9635 141.527 48.4985C141.858 48.0232 142.323 47.6563 142.922 47.398C143.532 47.1397 144.234 47.0105 145.03 47.0105C145.815 47.0105 146.585 47.1397 147.34 47.398C148.104 47.646 148.791 48.0077 149.401 48.483L148.502 49.723C147.334 48.8343 146.151 48.39 144.953 48.39C144.477 48.39 144.064 48.4572 143.713 48.5915C143.361 48.7258 143.087 48.917 142.891 49.165C142.695 49.4027 142.597 49.6817 142.597 50.002C142.597 50.4463 142.746 50.7873 143.046 51.025C143.346 51.2523 143.842 51.4177 144.534 51.521L146.286 51.8155C147.433 52.0015 148.275 52.3373 148.812 52.823C149.349 53.3087 149.618 53.9752 149.618 54.8225C149.618 55.4838 149.437 56.0677 149.076 56.574C148.714 57.07 148.208 57.4575 147.557 57.7365C146.906 58.0155 146.151 58.155 145.294 58.155ZM154.842 58.155C154.078 58.155 153.38 57.9742 152.75 57.6125C152.13 57.2508 151.639 56.76 151.277 56.14C150.916 55.52 150.735 54.8277 150.735 54.063C150.735 53.2983 150.916 52.606 151.277 51.986C151.639 51.366 152.13 50.8752 152.75 50.5135C153.38 50.1415 154.078 49.9555 154.842 49.9555C155.617 49.9555 156.315 50.1415 156.935 50.5135C157.555 50.8752 158.046 51.366 158.407 51.986C158.769 52.606 158.95 53.2983 158.95 54.063C158.95 54.8277 158.769 55.52 158.407 56.14C158.046 56.76 157.555 57.2508 156.935 57.6125C156.315 57.9742 155.617 58.155 154.842 58.155ZM154.842 56.791C155.328 56.791 155.767 56.6722 156.16 56.4345C156.552 56.1865 156.862 55.8558 157.09 55.4425C157.317 55.0292 157.431 54.5642 157.431 54.0475C157.431 53.5412 157.312 53.0865 157.074 52.6835C156.847 52.2702 156.537 51.9395 156.144 51.6915C155.762 51.4435 155.328 51.3195 154.842 51.3195C154.357 51.3195 153.917 51.4435 153.525 51.6915C153.142 51.9395 152.832 52.2702 152.595 52.6835C152.367 53.0865 152.254 53.5412 152.254 54.0475C152.254 54.5642 152.367 55.0292 152.595 55.4425C152.822 55.8558 153.132 56.1865 153.525 56.4345C153.917 56.6722 154.357 56.791 154.842 56.791ZM160.415 58V47.15L161.965 46.8555V58H160.415ZM166.844 58.155C166.235 58.155 165.697 58.0258 165.232 57.7675C164.767 57.5092 164.406 57.1475 164.147 56.6825C163.889 56.2072 163.76 55.6647 163.76 55.055V50.1105H165.294V54.7915C165.294 55.4115 165.47 55.9023 165.821 56.264C166.183 56.6257 166.664 56.8065 167.263 56.8065C167.687 56.8065 168.064 56.7187 168.394 56.543C168.725 56.357 168.994 56.0987 169.2 55.768V50.1105H170.75V58H169.2V57.194C168.591 57.8347 167.805 58.155 166.844 58.155ZM175.964 58.1395C175.2 58.1395 174.616 57.9638 174.213 57.6125C173.81 57.2508 173.608 56.729 173.608 56.047V51.4125H171.934V50.1105H173.608V48.0955L175.143 47.7235V50.1105H177.468V51.4125H175.143V55.6905C175.143 56.0935 175.231 56.3828 175.406 56.5585C175.592 56.7238 175.892 56.8065 176.305 56.8065C176.522 56.8065 176.714 56.791 176.879 56.76C177.055 56.729 177.241 56.6825 177.437 56.6205V57.9225C177.23 57.9948 176.987 58.0465 176.708 58.0775C176.44 58.1188 176.192 58.1395 175.964 58.1395ZM178.61 58V50.1105H180.16V58H178.61ZM179.385 48.8395C179.126 48.8395 178.904 48.7465 178.718 48.5605C178.532 48.3642 178.439 48.1368 178.439 47.8785C178.439 47.6098 178.532 47.3877 178.718 47.212C178.904 47.026 179.126 46.933 179.385 46.933C179.653 46.933 179.881 47.026 180.067 47.212C180.253 47.3877 180.346 47.6098 180.346 47.8785C180.346 48.1368 180.253 48.3642 180.067 48.5605C179.881 48.7465 179.653 48.8395 179.385 48.8395ZM185.736 58.155C184.972 58.155 184.274 57.9742 183.644 57.6125C183.024 57.2508 182.533 56.76 182.171 56.14C181.81 55.52 181.629 54.8277 181.629 54.063C181.629 53.2983 181.81 52.606 182.171 51.986C182.533 51.366 183.024 50.8752 183.644 50.5135C184.274 50.1415 184.972 49.9555 185.736 49.9555C186.511 49.9555 187.209 50.1415 187.829 50.5135C188.449 50.8752 188.94 51.366 189.301 51.986C189.663 52.606 189.844 53.2983 189.844 54.063C189.844 54.8277 189.663 55.52 189.301 56.14C188.94 56.76 188.449 57.2508 187.829 57.6125C187.209 57.9742 186.511 58.155 185.736 58.155ZM185.736 56.791C186.222 56.791 186.661 56.6722 187.054 56.4345C187.446 56.1865 187.756 55.8558 187.984 55.4425C188.211 55.0292 188.325 54.5642 188.325 54.0475C188.325 53.5412 188.206 53.0865 187.968 52.6835C187.741 52.2702 187.431 51.9395 187.038 51.6915C186.656 51.4435 186.222 51.3195 185.736 51.3195C185.251 51.3195 184.811 51.4435 184.419 51.6915C184.036 51.9395 183.726 52.2702 183.489 52.6835C183.261 53.0865 183.148 53.5412 183.148 54.0475C183.148 54.5642 183.261 55.0292 183.489 55.4425C183.716 55.8558 184.026 56.1865 184.419 56.4345C184.811 56.6722 185.251 56.791 185.736 56.791ZM191.31 58V50.1105H192.86V50.9165C193.469 50.2758 194.26 49.9555 195.231 49.9555C195.841 49.9555 196.373 50.0847 196.828 50.343C197.293 50.6013 197.654 50.963 197.913 51.428C198.181 51.893 198.316 52.4303 198.316 53.04V58H196.766V53.3035C196.766 52.6835 196.59 52.1978 196.239 51.8465C195.898 51.4848 195.417 51.304 194.797 51.304C194.384 51.304 194.012 51.3918 193.681 51.5675C193.35 51.7432 193.077 51.9963 192.86 52.327V58H191.31Z" fill="#20282D"/>
</svg>
